<svg xmlns="http://www.w3.org/2000/svg" viewBox="0 0 400 300" width="406" height="306" class="illustration styles_illustrationTablet__1DWOa"><g id="_531_new_campaign_outline" data-name="#531_new_campaign_outline"><path d="M252,126.31l1.63-3.22s-1.7-3.53-.33-5.85,2.76-5.31,4.37-4.48,2.31,1.16,2.31,1.16a2.84,2.84,0,0,1,2.34-2.08c1.81-.11,12.27,4.52,11.95,6.1-1,4.66-7.59,14.34-11.91,17.41l-8.19,15.58-10.69-10.68Z" fill="#ffc9b0"></path><path d="M254.14,151.93a1,1,0,0,1-.7-.3L242.74,141a1,1,0,0,1-.15-1.23l8.5-13.9,1.4-2.77c-.45-1.14-1.4-4.1-.08-6.33.18-.3.37-.62.55-.94,1.29-2.26,2.9-5.07,5.14-3.91l1.37.69a3.44,3.44,0,0,1,2.76-1.73c2-.1,10.69,3.73,12.48,5.8a1.75,1.75,0,0,1,.51,1.51c-1,4.8-7.6,14.52-12.11,17.87L255,151.39a1,1,0,0,1-.74.53Zm-9.43-11.83,9.18,9.16,7.55-14.37a1,1,0,0,1,.31-.35c4.08-2.9,10.4-12.08,11.46-16.59-1-1.42-9.23-5.12-10.82-5.12h0c-1.05.07-1.42,1.31-1.43,1.36a1,1,0,0,1-1.39.64s-.71-.33-2.35-1.18c-.54-.28-1.85,2-2.48,3.13-.19.33-.38.66-.57,1-.9,1.52,0,4.06.37,4.91a1,1,0,0,1,0,.88l-1.63,3.23,0,.06ZM252,126.31h0Z" fill="#093f68"></path><path d="M128.36,126.31l-1.63-3.22s1.7-3.53.33-5.85-2.76-5.31-4.37-4.48-2.31,1.16-2.31,1.16a2.84,2.84,0,0,0-2.34-2.08c-1.81-.11-11.94,5.08-11.61,6.67,1,4.65,7.25,13.77,11.57,16.84l8.19,15.58,10.69-10.68Z" fill="#ffc9b0"></path><path d="M126.19,151.93H126a1,1,0,0,1-.74-.53L117.22,136c-4.57-3.38-10.78-12.49-11.77-17.31a2,2,0,0,1,.57-1.62c1.87-2.17,10-6.34,12.08-6.25a3.44,3.44,0,0,1,2.76,1.73l1.37-.69c2.24-1.16,3.85,1.65,5.14,3.91.18.32.37.64.55.94,1.32,2.23.37,5.19-.08,6.33l1.4,2.77,8.5,13.9a1,1,0,0,1-.15,1.23l-10.7,10.67A1,1,0,0,1,126.19,151.93Zm-18.74-33.44c1,4.42,7.07,13.16,11.13,16a1,1,0,0,1,.31.35l7.55,14.37,9.18-9.16-8.11-13.27,0-.06-1.63-3.23a1,1,0,0,1,0-.88c.41-.85,1.27-3.39.37-4.91-.19-.31-.38-.64-.57-1-.63-1.11-1.94-3.4-2.48-3.13-1.64.85-2.35,1.18-2.35,1.18a1,1,0,0,1-.85,0,1,1,0,0,1-.54-.65s-.38-1.28-1.43-1.35h0C116.07,112.83,108.31,117.23,107.45,118.49Z" fill="#093f68"></path><path d="M263.4,139.53s-25.3,44.74-50,63.68v37.55H165.82V202.33c-24.35-19.42-48.89-62.8-48.89-62.8l13.37-10.06c14.71,23.22,33.59,43.92,41.12,51.84h37.49c7.53-7.92,26.4-28.62,41.12-51.84Z" fill="#5c87a6"></path><path d="M213.38,241.76H165.82a1,1,0,0,1-1-1V202.81c-24.1-19.46-48.52-62.36-48.76-62.79a1,1,0,0,1,.27-1.29l13.37-10.06a1,1,0,0,1,.78-.18,1,1,0,0,1,.66.45c14.49,22.86,33.08,43.32,40.71,51.37h36.63c7.62-8,26.19-28.48,40.71-51.37a1,1,0,0,1,.66-.45,1.05,1.05,0,0,1,.79.18L264,138.73a1,1,0,0,1,.26,1.29c-.25.44-25.41,44.66-49.89,63.68v37.06A1,1,0,0,1,213.38,241.76Zm-46.56-2h45.56V203.21a1,1,0,0,1,.39-.79c22.52-17.26,45.86-56.66,49.33-62.63l-11.8-8.87c-14.72,23-33.29,43.33-40.66,51.08a1,1,0,0,1-.73.31H171.42a1,1,0,0,1-.73-.31c-7.38-7.76-26-28.13-40.66-51.08l-11.8,8.87c3.41,5.87,26.05,44.09,48.22,61.76a1,1,0,0,1,.37.78Z" fill="#093f68"></path><rect x="185.15" y="181.31" width="10.27" height="59.45" fill="#fff"></rect><path d="M195.42,241.76H185.15a1,1,0,0,1-1-1V181.31a1,1,0,0,1,1-1h10.27a1,1,0,0,1,1,1v59.45A1,1,0,0,1,195.42,241.76Zm-9.27-2h8.27V182.31h-8.27Z" fill="#093f68"></path><path d="M154.9,136.52c-1.05-8.58-.67-19.5,6.34-23.78a7.32,7.32,0,0,1,6.9-.43c8.46-16,30.46-8.85,42.65-2.21,5.23,2.85,11.3,6.33,13.79,12.06,1.83,4.19,1.44,9,.83,13.5a91.39,91.39,0,0,1-2.53,12.8,28.14,28.14,0,0,1-2.12,6.15c-.95,1.64-2.66,2.59-3.87,4.06a41.16,41.16,0,0,1-6.72,7,31.9,31.9,0,0,1-39,.6,37.25,37.25,0,0,1-8.09-8.53c-3.44-4.75-5.83-9.16-7.08-14.92C155.58,141,155.19,138.85,154.9,136.52Z" fill="#725858"></path><path d="M190.28,173.63a33.88,33.88,0,0,1-19.73-6.56,37.87,37.87,0,0,1-8.31-8.75c-4-5.5-6.09-9.94-7.25-15.3-.46-2.11-.82-4.26-1.08-6.38h0c-1.07-8.75-.76-20.14,6.81-24.77a8.37,8.37,0,0,1,7-.82,18,18,0,0,1,10.65-8.44c12.42-3.75,28.34,4.1,32.93,6.6s11.49,6.26,14.23,12.54c2,4.52,1.5,9.62.9,14a91.29,91.29,0,0,1-2.56,12.94c-.1.35-.19.71-.29,1.08a22.9,22.9,0,0,1-1.93,5.3,10.77,10.77,0,0,1-2.39,2.66,14.17,14.17,0,0,0-1.56,1.53,43,43,0,0,1-6.88,7.16A33.9,33.9,0,0,1,190.28,173.63Zm-25.18-61a6.38,6.38,0,0,0-3.34,1c-7,4.29-6.68,16.13-5.86,22.81h0c.25,2.06.6,4.14,1,6.19,1.1,5.08,3.11,9.29,6.92,14.55a35.67,35.67,0,0,0,7.87,8.31,30.9,30.9,0,0,0,37.83-.58,40.43,40.43,0,0,0,6.56-6.84,15.42,15.42,0,0,1,1.78-1.75,9.35,9.35,0,0,0,2-2.16,21.24,21.24,0,0,0,1.73-4.84l.3-1.1a90,90,0,0,0,2.5-12.65c.56-4.15,1-8.92-.75-13-2.28-5.22-7.62-8.46-13.36-11.58-4.41-2.41-19.72-10-31.4-6.45a16.13,16.13,0,0,0-9.88,8.25,1,1,0,0,1-1.31.44A6.32,6.32,0,0,0,165.1,112.64Z" fill="#093f68"></path><path d="M185.38,178.87h9.79a0,0,0,0,1,0,0v5.63a4.16,4.16,0,0,1-4.16,4.16h-1.48a4.16,4.16,0,0,1-4.16-4.16v-5.63A0,0,0,0,1,185.38,178.87Z" fill="#ffc9b0"></path><path d="M191,189.66h-1.47a5.17,5.17,0,0,1-5.16-5.16v-5.63a1,1,0,0,1,1-1h9.79a1,1,0,0,1,1,1v5.63A5.17,5.17,0,0,1,191,189.66Zm-4.63-9.79v4.63a3.17,3.17,0,0,0,3.16,3.16H191a3.17,3.17,0,0,0,3.16-3.16v-4.63Z" fill="#093f68"></path><ellipse cx="162.3" cy="153.44" rx="9.51" ry="8.19" fill="#ffc9b0"></ellipse><path d="M162.3,162.64c-5.79,0-10.51-4.13-10.51-9.2s4.72-9.19,10.51-9.19,10.51,4.12,10.51,9.19S168.1,162.64,162.3,162.64Zm0-16.39c-4.69,0-8.51,3.22-8.51,7.19s3.82,7.2,8.51,7.2,8.51-3.23,8.51-7.2S167,146.25,162.3,146.25Z" fill="#093f68"></path><ellipse cx="217.74" cy="153.44" rx="9.51" ry="8.19" fill="#ffc9b0"></ellipse><path d="M217.74,162.64c-5.79,0-10.51-4.13-10.51-9.2s4.72-9.19,10.51-9.19,10.51,4.12,10.51,9.19S223.54,162.64,217.74,162.64Zm0-16.39c-4.69,0-8.51,3.22-8.51,7.19s3.82,7.2,8.51,7.2,8.51-3.23,8.51-7.2S222.44,146.25,217.74,146.25Z" fill="#093f68"></path><path d="M207.35,130.17c-.43-.2-.87-.38-1.32-.55-2.83-1.08-5.83-1.61-8.67-2.66s-5.61-2.74-7-5.41a39.56,39.56,0,0,0-1.71,8.08,13.12,13.12,0,0,0,1.75,8c-6.65-4.12-13.12-9.42-16.29-16.73a59,59,0,0,1-6.82,15.76c-1.45,2.35-3.85,4.55-5.06,7s-.6,5.27-.6,7.89A28.68,28.68,0,0,0,210.28,172a30.45,30.45,0,0,0,7.59-12.68c1.65-5.49.55-10.67-.17-16.22a16.28,16.28,0,0,0-1.43-5.65,12.42,12.42,0,0,0-2.77-3.32A23.94,23.94,0,0,0,207.35,130.17Z" fill="#ffc9b0"></path><path d="M190.27,181.15a29.71,29.71,0,0,1-29.68-29.68c0-.62,0-1.25-.06-1.9-.11-2.19-.22-4.47.77-6.43a23,23,0,0,1,2.91-4.14,29.61,29.61,0,0,0,2.19-2.92,57.86,57.86,0,0,0,6.71-15.49,1,1,0,0,1,1.88-.14c2.3,5.3,6.5,10,13.12,14.47a16.19,16.19,0,0,1-.49-5.35,39.91,39.91,0,0,1,1.74-8.29,1,1,0,0,1,1.84-.2c1.13,2.09,3.32,3.76,6.51,4.94,1.34.49,2.77.89,4.14,1.26s3,.84,4.53,1.4c.47.18.93.37,1.38.58h0a25,25,0,0,1,6.41,4.15,13,13,0,0,1,3,3.59,17.23,17.23,0,0,1,1.54,6c.1.75.2,1.5.31,2.24.68,4.86,1.32,9.44-.17,14.4a31.5,31.5,0,0,1-7.84,13.1A30,30,0,0,1,190.27,181.15Zm-16-57.55a59.55,59.55,0,0,1-6.21,13.53,29.16,29.16,0,0,1-2.35,3.14,21.52,21.52,0,0,0-2.66,3.76c-.75,1.5-.66,3.51-.56,5.45,0,.67.06,1.34.06,2a27.69,27.69,0,0,0,47,19.84,29.3,29.3,0,0,0,7.33-12.26c1.37-4.53.75-8.91.11-13.54-.11-.75-.21-1.5-.31-2.26a15.71,15.71,0,0,0-1.32-5.31,11.17,11.17,0,0,0-2.55-3,23.15,23.15,0,0,0-5.9-3.82c-.42-.19-.84-.36-1.27-.53-1.4-.53-2.9-.94-4.34-1.34s-2.89-.79-4.32-1.32a15.19,15.19,0,0,1-6.3-4,30.21,30.21,0,0,0-1.1,5.84A12.32,12.32,0,0,0,191.2,137a1,1,0,0,1-1.36,1.39C182.3,133.77,177.3,129,174.31,123.6Z" fill="#093f68"></path><path d="M191.39,162.64a17.5,17.5,0,0,1-2.62-.21,1,1,0,0,1-.81-1.16,1,1,0,0,1,1.16-.81,12.67,12.67,0,0,0,3.74.06c0-.88-.93-3.57-2.22-6.05a1,1,0,0,1,1.77-.93c.94,1.81,3.05,6.2,2.25,8a1.57,1.57,0,0,1-1.07.91A9,9,0,0,1,191.39,162.64Z" fill="#093f68"></path><path d="M182.52,151.8a1,1,0,0,1-1-1,2.8,2.8,0,0,0-5.59,0,1,1,0,0,1-2,0,4.8,4.8,0,0,1,9.59,0A1,1,0,0,1,182.52,151.8Z" fill="#093f68"></path><path d="M206.35,151.8a1,1,0,0,1-1-1,2.8,2.8,0,0,0-5.59,0,1,1,0,0,1-2,0,4.8,4.8,0,0,1,9.59,0A1,1,0,0,1,206.35,151.8Z" fill="#093f68"></path><path d="M183.29,141.64a1.18,1.18,0,0,1-.26,0l-12.92-2.19a1.59,1.59,0,1,1,.53-3.13l12.92,2.19a1.59,1.59,0,0,1-.27,3.15Z" fill="#093f68"></path><path d="M196.09,141.64a1.59,1.59,0,0,1-.26-3.15l12.92-2.19a1.59,1.59,0,0,1,.53,3.13l-12.92,2.19A1.23,1.23,0,0,1,196.09,141.64Z" fill="#093f68"></path><path d="M191.88,171.32c-2.64,0-6-.91-9.59-4.13a1,1,0,1,1,1.33-1.49c7.13,6.38,12.81,2.44,12.86,2.4a1,1,0,1,1,1.17,1.62A10.73,10.73,0,0,1,191.88,171.32Z" fill="#093f68"></path><rect x="99.13" y="59.24" width="185.83" height="60.92" fill="#fff"></rect><path d="M285,121.16H99.13a1,1,0,0,1-1-1V59.24a1,1,0,0,1,1-1H285a1,1,0,0,1,1,1v60.92A1,1,0,0,1,285,121.16Zm-184.83-2H284V60.24H100.13Z" fill="#093f68"></path><path d="M252.78,126.67s1.05-15.94,3.74-15.94,1.2,8,1.2,8,6,1.21,3.85,6.47" fill="#ffc9b0"></path><path d="M252.78,127.67h-.07a1,1,0,0,1-.93-1.06c.51-7.7,1.74-16.88,4.74-16.88h0a2.16,2.16,0,0,1,1.69.8c1.32,1.6.93,5.55.64,7.47a6.51,6.51,0,0,1,3.62,2.82,5.37,5.37,0,0,1,0,4.72,1,1,0,0,1-1.3.56,1,1,0,0,1-.55-1.3,3.51,3.51,0,0,0,.07-3c-.85-1.59-3.17-2.09-3.19-2.1a1,1,0,0,1-.78-1.16c.48-2.6.6-5.9-.07-6.71l-.08-.07c-1,.83-2.33,7.61-2.82,15A1,1,0,0,1,252.78,127.67Z" fill="#093f68"></path><path d="M127.27,126.67s-1-15.94-3.74-15.94-1.2,8-1.2,8-6,1.21-3.85,6.47" fill="#ffc9b0"></path><path d="M127.27,127.67a1,1,0,0,1-1-.93c-.49-7.39-1.77-14.17-2.82-15l-.08.07c-.74.89-.48,4.53-.07,6.71a1,1,0,0,1-.78,1.16s-2.34.51-3.19,2.1a3.51,3.51,0,0,0,.07,3,1,1,0,1,1-1.85.74,5.37,5.37,0,0,1,0-4.72A6.51,6.51,0,0,1,121.2,118c-.29-1.92-.68-5.87.64-7.47a2.16,2.16,0,0,1,1.69-.8h0c3,0,4.24,9.18,4.74,16.88a1,1,0,0,1-.93,1.06Z" fill="#093f68"></path><path d="M143.68,74.44h6.93l14.24,21.83h.08V74.44h5.23v29.38h-6.64L149,81.29h-.08v22.53h-5.23Z" fill="#093f68"></path><path d="M176.72,74.44h19.46v4.73H182v7.22h13.49v4.74H182v8h15v4.73H176.72Z" fill="#093f68"></path><path d="M198.8,74.44h5.72L210,95.61h.09l6.6-21.17h5.14l6.48,21.17h.08l5.77-21.17h5.31L231,103.82h-5l-6.81-22.37h-.08l-6.81,22.37h-4.81Z" fill="#093f68"></path><path d="M300.87,183.64v29a10.58,10.58,0,0,1-10.58,10.58H238.16a10.58,10.58,0,0,1-10.58-10.58v-17l-10.76-13.15,10.76,1.07a10.58,10.58,0,0,1,10.58-10.58h52.13A10.58,10.58,0,0,1,300.87,183.64Z" fill="#fff"></path><path d="M290.29,224.26H238.16a11.59,11.59,0,0,1-11.58-11.58V196.07L216.05,183.2a1,1,0,0,1,.87-1.63l9.71,1a11.61,11.61,0,0,1,11.53-10.48h52.13a11.59,11.59,0,0,1,11.58,11.58v29A11.6,11.6,0,0,1,290.29,224.26ZM219.12,183.8l9.23,11.28a1,1,0,0,1,.23.64v17a9.59,9.59,0,0,0,9.58,9.58h52.13a9.59,9.59,0,0,0,9.58-9.58v-29a9.59,9.59,0,0,0-9.58-9.58H238.16a9.59,9.59,0,0,0-9.58,9.58,1,1,0,0,1-.33.74,1,1,0,0,1-.77.25Z" fill="#093f68"></path><path d="M250,201h3.63a0,0,0,0,1,0,0v14.63a1.81,1.81,0,0,1-1.81,1.81h0a1.81,1.81,0,0,1-1.81-1.81V201A0,0,0,0,1,250,201Z" transform="translate(-40.67 62.13) rotate(-13.03)" fill="#093f68"></path><path d="M253.23,218.27a2.82,2.82,0,0,1-2.74-2.18l-3.3-14.26a1,1,0,0,1,.75-1.2l3.54-.81a1,1,0,0,1,.75.12,1,1,0,0,1,.44.63l3.3,14.25a2.81,2.81,0,0,1-2.1,3.38A2.85,2.85,0,0,1,253.23,218.27Zm-3.86-15.91,3.07,13.28a.85.85,0,0,0,.36.51.81.81,0,0,0,.61.1h0a.81.81,0,0,0,.6-1L251,202Z" fill="#093f68"></path><circle cx="276.61" cy="193.99" r="5.2" fill="#f56132"></circle><path d="M276.61,200.19a6.2,6.2,0,1,1,6.16-6.91h0a6.2,6.2,0,0,1-5.45,6.87A5.74,5.74,0,0,1,276.61,200.19Zm0-10.4-.49,0a4.19,4.19,0,1,0,.49,0Z" fill="#093f68"></path><path d="M275.44,179l3.42,29.77s-10.57-4.86-16.46-4.18l-12.83,1.47a8.95,8.95,0,0,1-2-17.78l12.83-1.48C266.25,186.17,275.44,179,275.44,179Z" fill="#ffbc0e"></path><path d="M278.86,209.81a1.06,1.06,0,0,1-.42-.09c-.1,0-10.39-4.74-15.92-4.1l-12.83,1.47a9.95,9.95,0,1,1-2.27-19.77l12.83-1.47c5.54-.64,14.49-7.53,14.58-7.6a1,1,0,0,1,1-.13,1,1,0,0,1,.61.81l3.42,29.77a1,1,0,0,1-.41.92A1,1,0,0,1,278.86,209.81Zm-15.27-6.25c4.71,0,11.12,2.42,14.08,3.65l-3-26.34c-2.86,2-9.43,6.42-14.18,7l-12.82,1.47a8,8,0,0,0,1.81,15.8l12.83-1.48C262.7,203.59,263.14,203.56,263.59,203.56Z" fill="#093f68"></path><path d="M253,187.69l2.05,17.78-5.48.63a8.95,8.95,0,0,1-2-17.78Z" fill="#ffbc0e"></path><path d="M248.53,207.16a9.95,9.95,0,0,1-1.11-19.83l5.47-.63a1,1,0,0,1,1.11.88l2,17.78a1,1,0,0,1-.88,1.11l-5.47.63A11.41,11.41,0,0,1,248.53,207.16Zm3.6-18.36-4.48.51a7.94,7.94,0,0,0-4,14.12,7.85,7.85,0,0,0,5.85,1.68l4.48-.52Z" fill="#093f68"></path><path d="M245.15,194.52a1,1,0,0,1-.11-2l4.35-.49a1,1,0,0,1,.22,2l-4.35.49Z" fill="#093f68"></path><path d="M245.38,197.54a1,1,0,0,1-1-.89,1,1,0,0,1,.88-1.1l4.35-.49a1,1,0,1,1,.22,2l-4.35.49Z" fill="#093f68"></path><path d="M283.36,184.29a1,1,0,0,1-.35-1.94l5.52-2.09a1,1,0,1,1,.7,1.87l-5.51,2.09A.92.92,0,0,1,283.36,184.29Z" fill="#dfeaef"></path><path d="M285.58,193.89a1,1,0,0,1-.11-2l7.42-.9a1,1,0,0,1,1.11.87,1,1,0,0,1-.87,1.11l-7.42.9Z" fill="#dfeaef"></path><path d="M291.23,205.71a1.19,1.19,0,0,1-.41-.08l-4.69-2.08a1,1,0,1,1,.81-1.83l4.69,2.08a1,1,0,0,1-.4,1.91Z" fill="#dfeaef"></path></g></svg>