<svg xmlns="http://www.w3.org/2000/svg" viewBox="0 0 400 300" width="406" height="306" class="illustration styles_illustrationTablet__1DWOa"><g id="_211_creative_process_outline" data-name="#211_creative_process_outline"><path d="M95.42,104.26H304.58a0,0,0,0,1,0,0V236.93a0,0,0,0,1,0,0H131.87a36.45,36.45,0,0,1-36.45-36.45V104.26A0,0,0,0,1,95.42,104.26Z" fill="#fff"></path><path d="M304.58,237.93H131.87a37.49,37.49,0,0,1-37.45-37.45V104.26a1,1,0,0,1,1-1H304.58a1,1,0,0,1,1,1V236.93A1,1,0,0,1,304.58,237.93ZM96.42,105.26v95.22a35.49,35.49,0,0,0,35.45,35.45H303.58V105.26Z" fill="#093f68"></path><path d="M130.19,63.07v98.22A36.45,36.45,0,0,0,95.5,195.2h-.08V88.4a25.33,25.33,0,0,1,25.33-25.33Z" fill="#68e1fd"></path><path d="M95.5,196.2a1.07,1.07,0,0,1-1.08-1V88.4a26.36,26.36,0,0,1,26.33-26.33h9.44a1,1,0,0,1,1,1v98.22a1,1,0,0,1-1,1,35.38,35.38,0,0,0-33.73,33A1,1,0,0,1,95.5,196.2ZM120.75,64.07A24.35,24.35,0,0,0,96.42,88.4v97.17a37.39,37.39,0,0,1,32.77-25.23V64.07Z" fill="#093f68"></path><path d="M246.57,226.56H193.74a1,1,0,0,1-1-1V184.33a1,1,0,0,1,1-1h52.83a1,1,0,0,1,1,1v41.23A1,1,0,0,1,246.57,226.56Zm-51.83-2h50.83V185.33H194.74Z" fill="#dfeaef"></path><g id="ahcQ9Z"><path d="M180.58,132.83a2.32,2.32,0,0,0-1.81-2.19c-.87-.19-1.75-.33-2.64-.46a.6.6,0,0,1-.52-.44c-.26-.7-.56-1.4-.86-2.08a.47.47,0,0,1,0-.53c.54-.73,1.08-1.46,1.57-2.22a2.3,2.3,0,0,0-.21-2.83c-.8-.89-1.67-1.72-2.52-2.57a2.47,2.47,0,0,0-3.38-.31l-2,1.4a.45.45,0,0,1-.53.06c-.74-.33-1.5-.64-2.26-.93a.46.46,0,0,1-.34-.41c-.13-.81-.26-1.62-.41-2.43a2.43,2.43,0,0,0-2.33-2.09c-1.25,0-2.49,0-3.74,0a2.37,2.37,0,0,0-2.26,1.85c-.2.9-.34,1.82-.49,2.74a.48.48,0,0,1-.34.41c-.73.28-1.45.59-2.16.91a.42.42,0,0,1-.5,0c-.72-.53-1.44-1.06-2.19-1.56a2.33,2.33,0,0,0-2.86.19c-1,.87-1.87,1.77-2.74,2.71a2.39,2.39,0,0,0-.16,3.18c.48.7,1,1.39,1.47,2.09a.48.48,0,0,1,0,.37c-.3.79-.61,1.56-.94,2.34a.51.51,0,0,1-.3.24c-.8.15-1.61.28-2.42.41a2.42,2.42,0,0,0-2.16,2.27c0,1.3,0,2.6,0,3.9a2.32,2.32,0,0,0,1.79,2.16c.92.21,1.86.35,2.8.51a.46.46,0,0,1,.39.32c.29.74.6,1.47.93,2.2a.41.41,0,0,1,0,.47c-.5.67-1,1.34-1.45,2a2.45,2.45,0,0,0,.28,3.28c.78.79,1.56,1.58,2.36,2.36a2.46,2.46,0,0,0,3.36.26l2-1.45a.39.39,0,0,1,.45,0c.69.29,1.38.59,2.08.85a.54.54,0,0,1,.39.49c.12.8.25,1.59.39,2.39a2.41,2.41,0,0,0,2.23,2.09c1.31.05,2.62,0,3.93,0a2.34,2.34,0,0,0,2.18-1.83c.19-.88.32-1.78.47-2.67a.51.51,0,0,1,.37-.46c.73-.28,1.46-.59,2.18-.9a.41.41,0,0,1,.47,0c.67.49,1.35,1,2,1.44a2.52,2.52,0,0,0,1.63.5,2.12,2.12,0,0,0,1.45-.59c.86-.81,1.69-1.65,2.52-2.48a2.5,2.5,0,0,0,.31-3.44c-.47-.66-.93-1.32-1.41-2a.41.41,0,0,1,0-.47c.32-.73.63-1.46.92-2.2a.46.46,0,0,1,.42-.34l2.42-.39a2.44,2.44,0,0,0,2.12-2.32C180.62,135.38,180.62,134.1,180.58,132.83Zm-20,10.55a8.62,8.62,0,1,1,8.64-8.6A8.61,8.61,0,0,1,160.6,143.38Z" fill="none" stroke="#dfeaef" stroke-linecap="round" stroke-linejoin="round" stroke-width="2"></path></g><path d="M264.87,209.54H218.32a1,1,0,0,1-1-1V174.59a1,1,0,0,1,1-1h46.55a1,1,0,0,1,1,1v33.95A1,1,0,0,1,264.87,209.54Zm-45.55-2h44.55V175.59H219.32Z" fill="#dfeaef"></path><path d="M288.71,123.09H192.06a1,1,0,0,1,0-2h96.65a1,1,0,0,1,0,2Z" fill="#dfeaef"></path><path d="M288.71,138.79H192.06a1,1,0,0,1,0-2h96.65a1,1,0,0,1,0,2Z" fill="#dfeaef"></path><path d="M212.25,154.48H192.06a1,1,0,0,1,0-2h20.19a1,1,0,0,1,0,2Z" fill="#dfeaef"></path><path d="M292.28,187.29H279.44a1,1,0,0,1-1-1v-11.7a1,1,0,0,1,1-1h12.84a1,1,0,0,1,1,1v11.7A1,1,0,0,1,292.28,187.29Zm-11.84-2h10.84v-9.7H280.44Z" fill="#dfeaef"></path><path d="M292.28,208H279.44a1,1,0,0,1-1-1v-11.7a1,1,0,0,1,1-1h12.84a1,1,0,0,1,1,1V207A1,1,0,0,1,292.28,208Zm-11.84-2h10.84v-9.7H280.44Z" fill="#dfeaef"></path><path d="M292.28,228.65H279.44a1,1,0,0,1-1-1V215.94a1,1,0,0,1,1-1h12.84a1,1,0,0,1,1,1v11.71A1,1,0,0,1,292.28,228.65Zm-11.84-2h10.84v-9.71H280.44Z" fill="#dfeaef"></path><path d="M257,58.32h4.6a5.43,5.43,0,0,1,5.43,5.43v83.72a0,0,0,0,1,0,0H251.59a0,0,0,0,1,0,0V63.75A5.43,5.43,0,0,1,257,58.32Z" transform="translate(139.56 -149.08) rotate(42.94)" fill="#68e1fd"></path><path d="M234.62,141.79a1,1,0,0,1-.68-.27L222.62,131a1,1,0,0,1-.32-.69,1,1,0,0,1,.27-.72l57-61.29a6.45,6.45,0,0,1,9.1-.33l3.36,3.13a6.44,6.44,0,0,1,.33,9.1l-57,61.28A1,1,0,0,1,234.62,141.79Zm-9.91-11.58,9.86,9.17,56.34-60.56a4.42,4.42,0,0,0-.22-6.26l-3.37-3.13a4.43,4.43,0,0,0-6.26.22Z" fill="#093f68"></path><polygon points="234.62 140.79 220.88 148.58 212.25 153.48 216.52 144.52 223.3 130.26 234.62 140.79" fill="#ffbc0e"></polygon><path d="M212.25,154.48a1,1,0,0,1-.9-1.43l11-23.22a1,1,0,0,1,1.59-.3l11.32,10.53a1,1,0,0,1,.31.85,1,1,0,0,1-.5.75l-22.37,12.69A1,1,0,0,1,212.25,154.48Zm11.36-22.56-9.09,19.13,18.42-10.45Z" fill="#093f68"></path><polygon points="220.88 148.58 212.25 153.48 216.52 144.52 220.88 148.58" fill="#fff"></polygon><path d="M212.25,154.48a1,1,0,0,1-.9-1.43l4.26-9a1,1,0,0,1,.72-.55,1,1,0,0,1,.87.25l4.37,4.06a1,1,0,0,1-.19,1.6l-8.64,4.9A1,1,0,0,1,212.25,154.48Zm4.58-8.3-2.31,4.87,4.69-2.66Z" fill="#093f68"></path><ellipse cx="158.99" cy="220.41" rx="6.75" ry="5.15" fill="#fff"></ellipse><path d="M159,226.56c-4.28,0-7.75-2.76-7.75-6.15s3.47-6.15,7.75-6.15,7.74,2.76,7.74,6.15S163.26,226.56,159,226.56Zm0-10.3c-3.17,0-5.75,1.86-5.75,4.15s2.58,4.15,5.75,4.15,5.74-1.86,5.74-4.15S162.16,216.26,159,216.26Z" fill="#dfeaef"></path><path d="M179,184.83A20,20,0,1,0,144.83,199a19.64,19.64,0,0,1,5.12,9.47l.16.68h17.75l.2-.83a20.78,20.78,0,0,1,5.36-9.61A19.93,19.93,0,0,0,179,184.83Z" fill="#fff"></path><path d="M167.86,210.1H150.11a1,1,0,0,1-1-.77l-.16-.69a18.68,18.68,0,0,0-4.85-9,21,21,0,1,1,30-.3A19.93,19.93,0,0,0,169,208.5l-.19.83A1,1,0,0,1,167.86,210.1Zm-17-2h16.17v0A21.77,21.77,0,0,1,172.7,198a19,19,0,1,0-27.16.27A20.55,20.55,0,0,1,150.9,208.1Z" fill="#dfeaef"></path><rect x="148.83" y="209.1" width="20.32" height="4.1" rx="1.85" fill="#fff"></rect><path d="M167.3,214.21H150.67a2.85,2.85,0,0,1-2.84-2.85V211a2.85,2.85,0,0,1,2.84-2.85H167.3a2.86,2.86,0,0,1,2.85,2.85v.41A2.86,2.86,0,0,1,167.3,214.21Zm-16.63-4.11a.85.85,0,0,0-.84.85v.41a.85.85,0,0,0,.84.85H167.3a.85.85,0,0,0,.85-.85V211a.85.85,0,0,0-.85-.85Z" fill="#dfeaef"></path><rect x="148.83" y="213.21" width="20.32" height="4.1" rx="1.85" fill="#fff"></rect><path d="M167.3,218.31H150.67a2.84,2.84,0,0,1-2.84-2.84v-.42a2.84,2.84,0,0,1,2.84-2.84H167.3a2.85,2.85,0,0,1,2.85,2.84v.42A2.85,2.85,0,0,1,167.3,218.31Zm-16.63-4.1a.85.85,0,0,0-.84.84v.42a.85.85,0,0,0,.84.84H167.3a.85.85,0,0,0,.85-.84v-.42a.85.85,0,0,0-.85-.84Z" fill="#dfeaef"></path><rect x="148.83" y="217.31" width="20.32" height="4.1" rx="1.85" fill="#fff"></rect><path d="M167.3,222.42H150.67a2.85,2.85,0,0,1-2.84-2.85v-.41a2.85,2.85,0,0,1,2.84-2.85H167.3a2.86,2.86,0,0,1,2.85,2.85v.41A2.86,2.86,0,0,1,167.3,222.42Zm-16.63-4.11a.85.85,0,0,0-.84.85v.41a.85.85,0,0,0,.84.85H167.3a.85.85,0,0,0,.85-.85v-.41a.85.85,0,0,0-.85-.85Z" fill="#dfeaef"></path><polyline points="155.6 207.21 152.24 182.28 159.36 190.03 166.48 180.53 163.4 207.21" fill="#fff"></polyline><path d="M155.6,208.21a1,1,0,0,1-1-.87l-3.36-24.93a1,1,0,0,1,.56-1,1,1,0,0,1,1.17.22l6.3,6.87,6.4-8.54a1,1,0,0,1,1.17-.33,1,1,0,0,1,.62,1.05l-3.08,26.68a1,1,0,0,1-2-.23l2.65-23-4.9,6.54a1,1,0,0,1-1.54.08l-5-5.41,2.93,21.78a1,1,0,0,1-.86,1.12Z" fill="#dfeaef"></path></g></svg>